<svg width="193" height="52" viewBox="0 0 193 52" fill="none" xmlns="http://www.w3.org/2000/svg">
  <g clip-path="url(#clip0_14_9)">
    <g clip-path="url(#clip1_14_9)">
      <path d="M37.9551 43.9202L36.0433 45.8319C35.8512 46.024 35.614 46.1647 35.3534 46.2414C35.0927 46.3181 34.8171 46.3282 34.5515 46.2709C34.286 46.2135 34.0391 46.0905 33.8334 45.9131C33.6277 45.7356 33.4697 45.5095 33.374 45.2552L27.7874 30.4103L20.682 37.2069L21.2185 42.8135C21.3427 43.9044 21.2278 44.5608 20.2439 45.5447L18.957 46.8316C18.7598 47.0419 18.5148 47.2016 18.2428 47.2971C17.9707 47.3926 17.6797 47.4211 17.3943 47.3803C16.9928 47.3207 16.4341 47.098 16.0406 46.377L12.365 39.8547C12.3378 39.8059 12.3126 39.7549 12.2896 39.7032C12.2868 39.6989 12.2831 39.6953 12.2789 39.6924C12.2267 39.6699 12.1759 39.6445 12.1266 39.6163L5.57058 35.9099C4.86966 35.5178 4.65637 34.967 4.60107 34.5727C4.56386 34.3079 4.58932 34.038 4.67538 33.7848C4.76144 33.5316 4.90571 33.3021 5.0966 33.1148L6.45534 31.7561C7.19002 31.0214 8.23278 30.6379 9.18433 30.7507L14.6868 31.2878L21.5725 24.1953L6.74691 18.6253C6.49266 18.5298 6.26642 18.372 6.08887 18.1665C5.91132 17.9609 5.78812 17.7141 5.73055 17.4487C5.67297 17.1832 5.68285 16.9076 5.75929 16.6469C5.83572 16.3863 5.97627 16.149 6.16808 15.9567L8.10064 14.0241C8.37567 13.7599 8.70668 13.5611 9.06909 13.4423C9.43151 13.3236 9.81601 13.288 10.1941 13.3383L30.0905 15.2737L34.1302 11.0158C34.4174 10.6955 35.2534 9.84804 35.448 9.65342C39.4187 5.68705 43.0769 4.60551 45.2357 6.76428C45.9151 7.44366 46.9033 8.97477 45.8885 11.5924C45.2903 13.1386 44.0996 14.8091 42.3502 16.5585C42.1577 16.751 41.3124 17.5847 40.9878 17.8763L36.7292 21.9138L38.6423 41.8325C38.6915 42.2098 38.6553 42.5932 38.5363 42.9546C38.4173 43.3159 38.2187 43.6459 37.9551 43.9202V43.9202Z" fill="#3A78C9"/>
    </g>
  </g>
  <defs>
    <clipPath id="clip0_14_9">
      <rect width="193" height="52" fill="white"/>
    </clipPath>
    <clipPath id="clip1_14_9">
      <rect width="52" height="52" fill="white" transform="translate(-8.76955 24) rotate(-45)"/>
    </clipPath>
  </defs>
</svg>
