<svg xmlns="http://www.w3.org/2000/svg" xmlns:xlink="http://www.w3.org/1999/xlink" version="1.1" width="256" height="256" viewBox="0 0 256 256" xml:space="preserve">
<g style="stroke: none; stroke-width: 0; stroke-dasharray: none; stroke-linecap: butt; stroke-linejoin: miter; stroke-miterlimit: 10; fill: none; fill-rule: nonzero; opacity: 1;" transform="translate(1.4065934065934016 1.4065934065934016) scale(2.81 2.81)">
	<path d="M 85.743 43.098 c -1.06 -0.395 -1.913 -1.124 -2.469 -2.106 c -1.394 -2.471 -3.564 -3.63 -7.039 -3.76 c -10.928 -0.406 -19.9 -0.557 -27.823 -0.428 L 23.137 21.453 c -1.029 -0.625 -2.21 -0.955 -3.414 -0.955 h -4.075 c -1.056 0 -1.968 0.603 -2.382 1.574 s -0.218 2.048 0.517 2.813 l 12.822 13.211 c -2.537 0.276 -5.054 0.597 -7.599 0.964 c -1.417 0.205 -2.874 -0.278 -3.904 -1.291 l -6.65 -6.534 c -1.108 -1.099 -2.577 -1.704 -4.137 -1.704 H 2.501 c -0.661 0 -1.27 0.301 -1.671 0.827 c -0.401 0.526 -0.531 1.193 -0.356 1.831 L 3.41 42.896 l 0.132 0.408 c 0.39 1.204 0.704 2.163 1.245 2.932 L 0.455 50.75 c -0.453 0.472 -0.58 1.166 -0.323 1.768 c 0.257 0.603 0.845 0.991 1.5 0.991 h 1.615 c 0.588 0 1.165 -0.161 1.668 -0.467 l 6.593 -4.025 c 5.56 1.297 10.7 2.094 15.154 2.681 L 13.78 65.118 c -0.731 0.762 -0.927 1.838 -0.513 2.81 c 0.414 0.971 1.327 1.574 2.382 1.574 h 4.075 c 1.204 0 2.385 -0.331 3.414 -0.956 l 25 -15.183 h 35.981 c 0.106 0 0.209 -0.017 0.305 -0.047 c 5.008 -0.438 5.577 -3.815 5.577 -5.323 C 89.999 45.706 87.862 43.886 85.743 43.098 z M 15.223 23.497 c -0.244 -0.254 -0.163 -0.532 -0.117 -0.64 c 0.046 -0.108 0.191 -0.359 0.543 -0.359 h 4.075 c 0.838 0 1.659 0.23 2.375 0.665 l 22.598 13.725 c -5.553 0.16 -10.624 0.473 -15.557 0.95 L 15.223 23.497 z M 83.294 51.363 H 51.43 l 4.887 -2.968 c 0.472 -0.286 0.622 -0.901 0.335 -1.374 c -0.285 -0.471 -0.898 -0.621 -1.374 -0.335 l -33.179 20.15 c -0.716 0.435 -1.537 0.665 -2.375 0.665 h -4.075 c -0.352 0 -0.497 -0.251 -0.543 -0.358 c -0.046 -0.108 -0.126 -0.387 0.117 -0.641 l 17.536 -18.27 c 0.382 -0.398 0.369 -1.031 -0.029 -1.414 c -0.398 -0.381 -1.031 -0.37 -1.414 0.029 l -2.932 3.054 c -4.21 -0.533 -9.1 -1.231 -14.427 -2.381 l 2.735 -1.669 c 0.472 -0.288 0.62 -0.903 0.333 -1.375 c -0.288 -0.471 -0.903 -0.62 -1.375 -0.333 L 3.874 51.334 c -0.188 0.114 -0.406 0.175 -0.628 0.175 H 2.499 l 5.584 -5.818 c 0.382 -0.398 0.369 -1.031 -0.029 -1.414 c -0.398 -0.382 -1.031 -0.37 -1.414 0.029 l -0.413 0.43 c -0.268 -0.502 -0.492 -1.155 -0.781 -2.049 L 2.403 31.661 l -0.964 0.264 l 1.063 -0.393 h 1.814 c 1.029 0 1.998 0.399 2.732 1.127 l 6.654 6.537 c 1.472 1.446 3.563 2.135 5.59 1.844 c 15.971 -2.302 30.855 -2.775 56.869 -1.809 c 2.774 0.103 4.33 0.898 5.371 2.744 c 0.13 0.23 0.291 0.437 0.446 0.649 H 76.16 c -0.553 0 -1 0.448 -1 1 s 0.447 1 1 1 h 8.153 c 0.24 0.124 0.478 0.254 0.733 0.349 c 1.468 0.546 2.954 1.759 2.954 3.021 C 87.999 48.827 87.999 51.363 83.294 51.363 z" style="stroke: none; stroke-width: 1; stroke-dasharray: none; stroke-linecap: butt; stroke-linejoin: miter; stroke-miterlimit: 10; fill: rgb(0,0,0); fill-rule: nonzero; opacity: 1;" transform=" matrix(1 0 0 1 0 0) " stroke-linecap="round"/>
</g>
</svg>